<?xml version="1.0" encoding="UTF-8"?>
<svg xmlns="http://www.w3.org/2000/svg" xmlns:xlink="http://www.w3.org/1999/xlink" width="16px" height="16px" viewBox="0 0 16 16" version="1.1">
<g id="surface1">
<path style=" stroke:none;fill-rule:nonzero;fill:rgb(25.882354%,52.156866%,95.686275%);fill-opacity:1;" d="M 8.875 4.566406 C 10.097656 4.882812 11.054688 5.839844 11.375 7.066406 L 13.726562 7.066406 L 13.726562 3.492188 L 8.875 1.332031 Z M 8.875 4.566406 "/>
<path style=" stroke:none;fill-rule:nonzero;fill:rgb(25.882354%,52.156866%,95.686275%);fill-opacity:1;" d="M 4.621094 7.074219 C 4.9375 5.847656 5.894531 4.890625 7.121094 4.574219 L 7.121094 1.332031 L 2.273438 3.492188 L 2.273438 7.074219 Z M 4.621094 7.074219 "/>
<path style=" stroke:none;fill-rule:nonzero;fill:rgb(25.882354%,52.156866%,95.686275%);fill-opacity:1;" d="M 7.125 11.332031 C 5.902344 11.015625 4.945312 10.058594 4.625 8.832031 L 2.421875 8.832031 C 2.925781 11.4375 4.6875 13.621094 7.125 14.667969 Z M 7.125 11.332031 "/>
<path style=" stroke:none;fill-rule:nonzero;fill:rgb(25.882354%,52.156866%,95.686275%);fill-opacity:1;" d="M 11.378906 8.832031 C 11.0625 10.058594 10.105469 11.015625 8.878906 11.332031 L 8.878906 14.667969 C 11.316406 13.621094 13.078125 11.4375 13.578125 8.832031 Z M 11.378906 8.832031 "/>
<path style=" stroke:none;fill-rule:nonzero;fill:rgb(40.000001%,61.56863%,96.470588%);fill-opacity:1;" d="M 9.753906 7.945312 C 9.753906 6.976562 8.96875 6.191406 8 6.191406 C 7.03125 6.191406 6.246094 6.976562 6.246094 7.945312 C 6.246094 8.914062 7.03125 9.699219 8 9.699219 C 8.96875 9.699219 9.753906 8.914062 9.753906 7.945312 Z M 9.753906 7.945312 "/>
</g>
</svg>
