<?xml version="1.0" encoding="UTF-8"?>
<svg xmlns="http://www.w3.org/2000/svg" xmlns:xlink="http://www.w3.org/1999/xlink" width="128px" height="128px" viewBox="0 0 128 128" version="1.1">
<g id="surface1">
<path style=" stroke:none;fill-rule:nonzero;fill:rgb(25.882354%,52.156866%,95.686275%);fill-opacity:1;" d="M 70.988281 36.535156 C 80.789062 39.074219 88.445312 46.730469 90.988281 56.535156 L 109.8125 56.535156 L 109.8125 27.945312 L 70.988281 10.667969 Z M 70.988281 36.535156 "/>
<path style=" stroke:none;fill-rule:nonzero;fill:rgb(25.882354%,52.156866%,95.686275%);fill-opacity:1;" d="M 36.960938 56.585938 C 39.492188 46.777344 47.152344 39.117188 56.960938 36.585938 L 56.960938 10.667969 L 18.1875 27.945312 L 18.1875 56.585938 Z M 36.960938 56.585938 "/>
<path style=" stroke:none;fill-rule:nonzero;fill:rgb(25.882354%,52.156866%,95.686275%);fill-opacity:1;" d="M 57.011719 90.667969 C 47.210938 88.125 39.554688 80.46875 37.011719 70.667969 L 19.359375 70.667969 C 23.398438 91.503906 37.5 108.984375 57.011719 117.332031 Z M 57.011719 90.667969 "/>
<path style=" stroke:none;fill-rule:nonzero;fill:rgb(25.882354%,52.156866%,95.686275%);fill-opacity:1;" d="M 91.039062 70.667969 C 88.5 80.46875 80.84375 88.125 71.039062 90.667969 L 71.039062 117.332031 C 90.53125 108.96875 104.613281 91.492188 108.640625 70.667969 Z M 91.039062 70.667969 "/>
<path style=" stroke:none;fill-rule:nonzero;fill:rgb(40.000001%,61.56863%,96.470588%);fill-opacity:1;" d="M 78.027344 63.574219 C 78.027344 55.828125 71.746094 49.546875 64 49.546875 C 56.253906 49.546875 49.972656 55.828125 49.972656 63.574219 C 49.972656 71.320312 56.253906 77.601562 64 77.601562 C 71.746094 77.601562 78.027344 71.320312 78.027344 63.574219 Z M 78.027344 63.574219 "/>
</g>
</svg>
