<?xml version="1.0" encoding="UTF-8"?>
<svg xmlns="http://www.w3.org/2000/svg" xmlns:xlink="http://www.w3.org/1999/xlink" width="48px" height="48px" viewBox="0 0 48 48" version="1.1">
<g id="surface1">
<path style=" stroke:none;fill-rule:nonzero;fill:rgb(25.882354%,52.156866%,95.686275%);fill-opacity:1;" d="M 26.621094 13.699219 C 30.296875 14.652344 33.167969 17.523438 34.121094 21.199219 L 41.179688 21.199219 L 41.179688 10.480469 L 26.621094 4 Z M 26.621094 13.699219 "/>
<path style=" stroke:none;fill-rule:nonzero;fill:rgb(25.882354%,52.156866%,95.686275%);fill-opacity:1;" d="M 13.859375 21.21875 C 14.808594 17.542969 17.683594 14.667969 21.359375 13.71875 L 21.359375 4 L 6.820312 10.480469 L 6.820312 21.21875 Z M 13.859375 21.21875 "/>
<path style=" stroke:none;fill-rule:nonzero;fill:rgb(25.882354%,52.156866%,95.686275%);fill-opacity:1;" d="M 21.378906 34 C 17.703125 33.046875 14.832031 30.175781 13.878906 26.5 L 7.261719 26.5 C 8.773438 34.3125 14.0625 40.867188 21.378906 44 Z M 21.378906 34 "/>
<path style=" stroke:none;fill-rule:nonzero;fill:rgb(25.882354%,52.156866%,95.686275%);fill-opacity:1;" d="M 34.140625 26.5 C 33.1875 30.175781 30.316406 33.046875 26.640625 34 L 26.640625 44 C 33.949219 40.863281 39.230469 34.308594 40.738281 26.5 Z M 34.140625 26.5 "/>
<path style=" stroke:none;fill-rule:nonzero;fill:rgb(40.000001%,61.56863%,96.470588%);fill-opacity:1;" d="M 29.261719 23.839844 C 29.261719 20.933594 26.90625 18.578125 24 18.578125 C 21.09375 18.578125 18.738281 20.933594 18.738281 23.839844 C 18.738281 26.746094 21.09375 29.101562 24 29.101562 C 26.90625 29.101562 29.261719 26.746094 29.261719 23.839844 Z M 29.261719 23.839844 "/>
</g>
</svg>
